<?xml version="1.0" standalone="no"?>
<!DOCTYPE svg PUBLIC "-//W3C//DTD SVG 20010904//EN"
 "http://www.w3.org/TR/2001/REC-SVG-20010904/DTD/svg10.dtd">
<svg version="1.0" xmlns="http://www.w3.org/2000/svg"
 width="544.000000pt" height="544.000000pt" viewBox="0 0 544.000000 544.000000"
 preserveAspectRatio="xMidYMid meet">
<metadata>
Created by potrace 1.14, written by Peter Selinger 2001-2017
</metadata>
<g transform="translate(0.000000,544.000000) scale(0.100000,-0.100000)"
fill="#000000" stroke="none">
<path d="M2634 5223 c-60 -61 -144 -173 -144 -192 0 -6 -4 -11 -8 -11 -4 0 -8
-10 -9 -22 -1 -11 -6 -24 -10 -27 -4 -3 -9 -11 -10 -18 -1 -6 -5 -26 -9 -45
-11 -53 -11 -122 -1 -136 6 -7 7 -15 4 -19 -3 -3 0 -20 8 -38 7 -19 11 -36 7
-39 -3 -3 1 -6 8 -6 7 0 10 -3 7 -6 -4 -4 2 -19 13 -34 11 -16 20 -31 20 -35
0 -3 13 -20 30 -38 16 -18 30 -35 30 -39 0 -4 9 -10 20 -13 11 -4 18 -11 15
-16 -4 -5 1 -12 9 -15 17 -6 23 -54 7 -54 -5 0 -12 -13 -16 -30 -4 -16 -11
-30 -16 -30 -5 0 -8 -3 -7 -7 3 -13 -38 -73 -45 -66 -4 3 -7 0 -7 -7 0 -14
-94 -110 -108 -110 -5 0 -22 -11 -37 -24 -16 -14 -32 -23 -37 -20 -4 3 -8 1
-8 -5 0 -10 -38 -27 -52 -23 -5 1 -8 -3 -8 -9 0 -5 -4 -7 -10 -4 -5 3 -10 2
-10 -4 0 -5 -9 -8 -20 -6 -11 2 -18 0 -15 -6 4 -5 0 -9 -7 -10 -7 0 -20 -2
-28 -4 -27 -7 -55 -14 -76 -20 -13 -4 -25 -2 -29 7 -5 7 -5 10 -1 6 7 -6 48
28 44 36 -2 3 6 15 18 28 22 25 51 70 51 78 0 3 6 16 13 30 8 14 15 31 17 38
9 39 12 47 13 47 3 0 10 38 14 72 2 17 7 36 10 42 4 6 1 11 -6 11 -9 0 -9 3 2
10 9 6 10 10 3 10 -8 0 -9 9 -3 30 5 17 5 30 1 30 -4 0 -7 18 -6 40 1 22 -2
40 -7 40 -5 0 -7 4 -4 8 11 18 -67 202 -85 202 -5 0 -9 6 -9 14 0 8 -9 21 -20
29 -11 8 -17 17 -13 20 3 4 -1 7 -11 7 -9 0 -14 5 -11 10 3 6 2 10 -3 10 -4 0
-17 8 -28 18 -10 10 -38 29 -61 42 -24 13 -43 28 -43 32 0 5 -4 7 -9 3 -5 -3
-25 1 -43 9 -51 22 -71 29 -93 30 -11 1 -24 4 -30 7 -5 3 -28 5 -50 4 -22 -1
-46 3 -52 8 -8 5 -13 6 -13 0 0 -5 -19 -10 -42 -11 -86 -4 -97 -5 -93 -13 4
-6 -30 -16 -72 -21 -7 -1 -13 -5 -13 -10 0 -5 -4 -6 -10 -3 -5 3 -10 1 -10 -4
0 -6 -7 -11 -15 -11 -8 0 -23 -9 -32 -20 -10 -11 -22 -20 -27 -20 -14 0 -107
-101 -101 -110 3 -4 -2 -11 -10 -14 -8 -3 -14 -9 -13 -13 0 -4 -5 -21 -12 -38
-7 -16 -12 -38 -12 -47 0 -10 -4 -18 -9 -18 -6 0 -6 -7 0 -19 6 -10 7 -22 3
-26 -10 -10 -9 -29 3 -37 6 -5 5 -8 -3 -8 -8 0 -10 -5 -5 -12 4 -7 9 -22 10
-33 5 -30 25 -78 40 -93 7 -8 10 -18 7 -24 -4 -6 -3 -8 3 -5 5 4 16 -4 22 -17
7 -12 26 -30 42 -40 16 -9 29 -21 29 -27 0 -5 9 -9 21 -9 11 0 17 -4 14 -10
-3 -6 1 -7 9 -4 9 3 16 1 16 -6 0 -6 5 -8 10 -5 5 3 10 1 10 -4 0 -6 3 -10 8
-10 4 1 9 0 12 -1 3 -1 22 -3 44 -6 21 -2 44 -8 51 -14 9 -8 15 -8 20 0 3 5
17 8 30 6 13 -2 26 -1 30 2 4 4 10 7 13 8 41 7 72 18 72 27 0 6 3 8 6 4 10 -9
55 17 96 56 20 19 40 32 44 28 4 -3 4 0 0 7 -5 8 0 20 12 30 10 9 17 23 15 30
-3 6 0 12 6 12 6 0 11 9 11 20 0 11 4 20 8 20 4 0 7 15 7 33 -1 17 4 35 9 39
7 5 6 8 -2 8 -7 0 -11 4 -7 9 3 6 -4 19 -16 30 -20 18 -23 19 -54 4 -24 -11
-31 -21 -28 -34 3 -11 0 -19 -7 -19 -10 0 -10 -3 0 -15 9 -10 9 -15 1 -15 -6
0 -10 -3 -10 -7 1 -5 0 -11 -1 -15 -1 -5 -3 -11 -5 -15 -7 -26 -18 -42 -26
-37 -5 3 -9 2 -8 -3 3 -19 -2 -33 -12 -33 -7 0 -19 -8 -28 -18 -22 -25 -59
-44 -71 -37 -6 4 -13 0 -16 -8 -4 -11 -23 -13 -82 -11 -42 2 -78 8 -80 13 -2
6 -12 11 -23 11 -10 0 -19 5 -19 10 0 6 -6 10 -13 10 -16 0 -72 61 -92 101
-17 32 -32 164 -18 156 5 -3 10 3 11 14 4 43 6 49 14 49 4 0 8 6 8 13 0 7 9
19 19 27 11 7 18 17 16 20 -2 3 6 13 17 21 12 8 30 22 40 32 10 9 18 15 18 12
0 -3 10 1 23 10 13 8 27 12 30 8 4 -3 7 -2 7 4 0 11 40 26 70 27 8 0 18 5 22
11 5 6 8 5 8 -4 0 -9 4 -10 13 -3 6 5 45 8 87 5 105 -5 110 -6 110 -16 0 -4 4
-6 8 -3 19 12 197 -88 186 -105 -3 -5 1 -9 9 -9 13 0 67 -72 67 -90 0 -4 6
-13 14 -20 8 -6 12 -18 9 -26 -3 -8 0 -14 6 -14 6 0 10 -3 10 -7 -1 -5 0 -10
1 -13 20 -53 29 -189 15 -255 -3 -16 -8 -41 -11 -55 -3 -13 -9 -29 -15 -36 -5
-6 -6 -14 -2 -17 3 -4 1 -7 -6 -7 -7 0 -10 -4 -6 -9 3 -5 -1 -15 -8 -23 -7 -7
-13 -16 -13 -20 1 -4 -7 -17 -16 -28 -10 -11 -18 -23 -18 -26 0 -3 -19 -23
-42 -44 -60 -55 -73 -65 -89 -68 -7 -2 -17 -8 -20 -14 -4 -6 -9 -5 -12 3 -4
10 -6 10 -6 2 -1 -7 -10 -13 -21 -13 -11 0 -20 -5 -20 -11 0 -5 -4 -7 -10 -4
-5 3 -15 3 -21 -1 -7 -4 -39 -9 -73 -11 -33 -2 -67 -5 -73 -8 -7 -2 -13 1 -13
8 0 8 -4 6 -10 -3 -9 -13 -10 -13 -10 0 0 13 -1 13 -10 0 -5 -8 -10 -10 -10
-5 0 6 -17 10 -37 9 -21 0 -46 3 -57 9 -14 7 -16 6 -11 -4 6 -8 4 -10 -6 -3
-16 10 -32 13 -76 17 -18 1 -33 4 -33 7 0 5 -34 10 -77 13 -7 0 -13 3 -13 7 0
4 -18 6 -39 6 -22 -1 -37 3 -34 7 3 5 -5 7 -18 6 -13 -2 -34 2 -46 9 -16 9
-24 9 -29 1 -4 -8 -9 -7 -15 2 -7 11 -9 11 -9 1 0 -9 -5 -10 -17 -4 -10 5 -33
9 -51 8 -17 0 -32 2 -32 5 0 8 -33 5 -48 -5 -6 -4 -12 -3 -12 1 0 5 -11 9 -25
9 -14 0 -25 -3 -25 -6 0 -3 -9 -6 -20 -6 -11 0 -20 4 -20 9 0 4 -6 5 -12 0 -7
-4 -22 -8 -33 -9 -11 -1 -38 -5 -60 -9 -22 -4 -47 -8 -57 -9 -9 -1 -23 -7 -31
-14 -7 -7 -17 -9 -20 -6 -4 4 -18 -1 -32 -10 -15 -10 -33 -15 -41 -12 -8 3
-14 -1 -14 -9 0 -9 -6 -12 -15 -9 -8 4 -15 1 -15 -5 0 -6 -6 -11 -14 -11 -7 0
-25 -9 -40 -21 -14 -11 -26 -17 -26 -12 0 4 -7 -1 -15 -11 -8 -11 -15 -17 -15
-13 0 7 -30 -16 -63 -48 -11 -11 -16 -13 -12 -5 5 8 -22 -16 -58 -54 -37 -38
-66 -74 -64 -80 2 -6 -9 -31 -25 -55 -15 -25 -28 -48 -28 -52 0 -3 -8 -24 -17
-45 -9 -22 -16 -51 -16 -66 1 -16 -2 -28 -6 -28 -8 0 -3 -117 6 -140 3 -8 5
-19 4 -24 -1 -4 4 -14 10 -22 9 -11 8 -14 -1 -14 -9 0 -8 -5 3 -18 10 -10 17
-26 17 -35 0 -9 5 -17 10 -17 6 0 10 -8 10 -18 0 -10 9 -24 19 -32 11 -7 18
-17 15 -22 -7 -11 124 -138 142 -138 8 0 14 -4 14 -10 0 -5 6 -10 14 -10 7 0
19 -6 25 -14 7 -8 21 -12 31 -9 11 3 20 1 20 -4 0 -5 6 -10 13 -11 27 -2 73
-11 91 -18 15 -6 17 -4 11 7 -7 11 -6 12 6 3 14 -12 77 -11 139 1 49 10 52 11
80 22 14 6 28 9 32 6 5 -2 8 1 8 7 0 6 12 16 28 22 26 12 122 101 122 113 0 4
7 13 15 22 9 8 19 28 22 44 3 16 9 29 13 29 3 0 6 10 5 23 -1 12 0 26 3 32 10
16 8 123 -2 117 -5 -3 -7 2 -3 11 3 9 2 19 -4 22 -5 4 -7 10 -4 15 3 5 0 12
-6 15 -5 4 -8 13 -5 21 3 8 -1 17 -9 20 -8 4 -15 12 -15 18 0 34 -111 124
-185 152 -51 19 -145 25 -145 9 0 -5 -4 -4 -9 4 -6 10 -10 10 -16 1 -4 -6 -13
-9 -21 -6 -17 6 -119 -48 -151 -80 -35 -35 -62 -85 -55 -102 4 -10 1 -13 -7
-8 -10 6 -12 -7 -10 -55 1 -35 5 -68 10 -74 4 -5 9 -19 11 -30 1 -11 11 -27
20 -36 10 -9 15 -19 11 -23 -3 -3 -2 -6 3 -6 6 0 19 -8 30 -17 32 -29 83 -55
94 -48 6 3 10 3 10 -2 0 -10 76 -9 114 2 47 13 116 54 116 68 0 5 7 15 15 23
8 9 18 26 21 40 8 32 -29 68 -60 58 -21 -7 -46 -28 -46 -39 0 -13 -37 -43 -65
-52 -36 -12 -63 -11 -93 5 -12 7 -22 10 -22 8 0 -3 -10 5 -23 17 -22 21 -25
28 -29 62 -1 8 -5 15 -9 15 -8 0 -7 19 2 35 3 6 5 17 4 25 -1 29 63 95 102
105 15 3 31 12 35 18 6 9 8 9 8 -1 0 -9 5 -10 18 -4 17 9 45 8 92 -5 14 -3 28
-7 32 -7 4 -1 16 -9 28 -18 11 -10 20 -15 20 -12 0 11 29 -24 59 -71 17 -26
28 -52 25 -56 -3 -5 0 -9 6 -9 6 0 9 -4 6 -8 -2 -4 -1 -14 4 -22 4 -7 4 -24
-1 -37 -6 -16 -5 -22 1 -18 7 4 6 -3 0 -20 -6 -15 -8 -31 -4 -36 3 -5 0 -9 -7
-9 -7 0 -9 -3 -6 -6 8 -8 -33 -84 -45 -84 -5 0 -6 -5 -2 -12 4 -6 3 -8 -4 -4
-6 3 -14 0 -19 -7 -11 -18 -73 -60 -73 -50 0 4 -4 2 -8 -5 -5 -7 -19 -15 -33
-18 -40 -9 -54 -12 -54 -14 0 -1 -22 -3 -48 -5 -35 -3 -46 -1 -40 8 4 8 1 7
-10 -1 -9 -8 -21 -11 -27 -7 -6 3 -23 9 -38 11 -43 8 -92 27 -92 37 0 4 -4 6
-9 3 -5 -3 -32 16 -60 43 -52 50 -107 121 -93 121 4 0 2 4 -5 8 -6 4 -13 16
-15 27 -1 11 -10 25 -18 32 -8 7 -10 13 -4 13 7 0 9 11 6 25 -2 14 -9 22 -14
19 -6 -4 -5 3 1 14 6 12 7 23 3 26 -9 5 -7 53 3 101 4 17 8 36 8 43 0 6 4 12
8 12 4 0 10 11 13 25 4 14 15 34 26 45 11 11 17 20 14 20 -4 0 5 11 19 24 14
13 23 27 20 30 -4 3 1 6 11 6 11 0 14 4 10 12 -5 8 -2 9 12 4 10 -4 15 -4 12
0 -10 10 15 32 30 27 7 -3 12 0 10 8 -2 7 2 14 7 14 16 2 90 39 93 48 2 4 8 7
13 7 6 0 7 -5 3 -11 -3 -6 5 -3 19 6 15 9 31 14 36 11 5 -4 12 -2 16 3 3 6 12
8 20 4 8 -3 15 -1 15 4 0 5 7 10 15 10 8 0 15 -4 15 -9 0 -4 5 -8 11 -8 5 0 8
3 6 8 -3 4 10 8 29 8 19 1 31 -3 28 -8 -4 -6 2 -5 13 1 11 6 23 8 26 5 3 -3
25 -8 48 -10 24 -3 48 -8 54 -12 5 -4 15 -7 20 -9 6 -1 21 -4 35 -7 14 -3 26
-10 28 -16 2 -6 8 -7 14 -4 6 4 14 1 18 -5 4 -7 17 -13 28 -14 12 -1 22 -5 22
-9 0 -4 7 -8 15 -8 8 0 15 -4 15 -10 0 -5 5 -10 11 -10 6 0 17 -6 24 -12 32
-29 45 -38 45 -33 0 3 29 -25 65 -62 36 -37 65 -73 65 -80 0 -7 4 -13 9 -13 7
0 81 -140 81 -154 0 -2 5 -17 11 -33 7 -15 13 -35 14 -43 1 -8 6 -28 10 -45 4
-16 8 -42 8 -57 1 -16 4 -28 7 -28 5 0 5 -218 1 -230 -1 -3 -4 -23 -7 -45 -2
-22 -6 -49 -8 -60 -2 -11 -4 -25 -5 -31 0 -7 -8 -15 -17 -18 -8 -3 -13 -2 -10
3 7 11 -151 84 -164 76 -6 -4 -10 -2 -10 4 0 5 -11 8 -25 6 -14 -1 -25 1 -25
5 0 4 -16 7 -35 8 -20 1 -40 4 -45 7 -6 4 -10 2 -10 -4 0 -6 -11 -6 -30 -1
-20 6 -30 5 -30 -2 0 -6 -7 -5 -17 3 -11 10 -14 10 -9 2 5 -9 0 -13 -16 -14
-42 -1 -83 -10 -92 -20 -6 -5 -18 -9 -28 -9 -9 0 -33 -9 -52 -19 -19 -11 -37
-17 -40 -14 -3 4 -6 1 -6 -5 0 -7 -6 -12 -14 -12 -7 0 -19 -7 -26 -15 -7 -8
-16 -12 -21 -9 -5 3 -9 0 -9 -6 0 -6 -4 -8 -10 -5 -6 3 -10 -1 -10 -10 0 -9
-4 -14 -8 -11 -5 3 -15 -6 -22 -19 -11 -21 -10 -28 8 -57 12 -18 22 -30 22
-26 0 4 17 -4 37 -18 20 -13 47 -27 60 -30 13 -4 23 -10 23 -16 0 -5 4 -7 9
-3 5 3 13 0 16 -6 4 -5 13 -8 20 -5 8 3 15 1 17 -4 2 -5 12 -11 23 -13 11 -2
28 -7 37 -11 9 -4 21 -5 27 -2 5 4 12 2 16 -3 3 -5 14 -8 25 -6 11 2 22 1 24
-3 10 -17 200 1 225 21 12 9 13 9 8 0 -9 -14 40 4 120 44 57 29 66 27 69 -15
2 -15 7 -47 11 -72 5 -25 8 -58 6 -75 -1 -16 3 -33 10 -37 7 -5 8 -8 1 -8 -6
0 -11 -7 -11 -15 0 -8 4 -15 9 -15 5 0 6 -6 1 -12 -4 -7 -8 -38 -10 -68 -1
-30 -5 -66 -9 -80 -3 -14 -8 -38 -11 -55 -3 -16 -10 -36 -16 -44 -10 -12 -9
-13 3 -6 11 6 10 3 -3 -12 -9 -11 -15 -22 -12 -25 7 -7 -43 -118 -64 -142 -9
-10 -15 -20 -14 -22 6 -9 -10 -33 -18 -28 -5 3 -9 -4 -9 -16 0 -12 -4 -18 -10
-15 -5 3 -10 2 -10 -4 0 -6 -15 -26 -34 -45 -19 -19 -32 -37 -28 -41 3 -3 -2
-3 -12 1 -13 5 -17 4 -12 -4 3 -6 -3 -13 -14 -17 -11 -3 -20 -11 -20 -16 0 -5
-6 -9 -13 -9 -8 0 -22 -9 -32 -20 -10 -11 -21 -17 -25 -15 -5 3 -10 1 -12 -4
-1 -5 -10 -11 -18 -13 -8 -2 -17 -6 -20 -10 -3 -3 -14 -8 -25 -10 -11 -1 -26
-9 -33 -15 -7 -7 -23 -14 -35 -15 -29 -2 -39 -4 -57 -11 -8 -4 -24 -8 -35 -10
-11 -1 -26 -6 -33 -10 -7 -5 -12 -4 -12 2 0 6 -5 11 -11 11 -5 0 -8 -4 -5 -8
6 -10 -55 -9 -71 1 -8 5 -13 3 -13 -3 0 -7 -8 -9 -21 -5 -26 8 -68 16 -91 16
-10 0 -20 4 -23 10 -4 5 -14 9 -24 9 -53 0 -241 144 -241 185 0 9 -4 13 -10
10 -5 -3 -12 6 -16 20 -3 14 -10 25 -16 25 -5 0 -6 5 -3 10 3 6 2 10 -2 10 -5
0 -10 8 -11 18 -3 32 -7 47 -16 61 -7 10 -6 12 4 6 10 -6 11 -4 4 6 -11 17
-13 89 -3 89 4 0 6 14 5 30 -1 17 2 30 7 30 5 0 7 6 4 14 -3 8 -1 16 4 18 5 2
11 13 12 25 0 13 7 25 15 28 7 3 11 9 8 13 -3 5 10 26 29 48 19 21 35 42 35
45 0 4 9 9 21 12 12 3 18 10 14 16 -3 7 2 11 14 11 12 0 21 4 21 9 0 8 66 36
111 47 47 12 134 12 141 0 6 -8 8 -8 8 1 0 9 10 9 40 -2 22 -8 40 -11 40 -7 0
4 4 2 8 -3 4 -6 20 -17 36 -25 32 -16 96 -72 96 -84 0 -4 9 -16 20 -28 22 -24
27 -43 8 -33 -7 4 -6 1 2 -7 8 -7 15 -22 14 -33 0 -11 4 -26 9 -32 6 -9 5 -13
-3 -13 -10 0 -10 -3 0 -15 8 -9 9 -15 2 -15 -6 0 -9 -8 -7 -18 2 -10 -7 -39
-20 -64 -13 -26 -21 -49 -18 -52 4 -3 -1 -6 -11 -6 -9 0 -15 -4 -12 -8 2 -4
-12 -19 -32 -32 -20 -14 -39 -27 -42 -30 -5 -5 -15 -8 -50 -15 -8 -2 -17 -4
-20 -5 -18 -7 -95 1 -100 10 -4 6 -11 10 -16 8 -20 -5 -102 57 -105 80 0 4 -2
14 -4 22 -12 49 -13 60 -4 60 6 0 8 3 6 8 -7 10 26 75 36 73 5 -1 16 6 25 16
17 18 83 25 98 11 4 -5 14 -8 21 -8 17 0 56 -38 66 -63 3 -9 12 -17 19 -18 7
0 21 -2 31 -4 20 -4 47 32 43 58 -4 32 -61 96 -94 108 -18 6 -30 14 -27 19 3
5 -3 9 -12 9 -10 1 -43 2 -73 4 -30 2 -61 -1 -67 -6 -7 -5 -13 -7 -13 -3 0 12
-75 -32 -89 -53 -8 -11 -18 -18 -21 -16 -9 6 -50 -77 -56 -112 -2 -16 -7 -33
-9 -40 -2 -7 0 -15 5 -18 6 -4 6 -13 0 -26 -8 -15 -8 -19 2 -17 7 2 12 -3 10
-10 -1 -7 6 -27 15 -45 19 -32 83 -103 83 -91 0 4 8 0 18 -8 16 -14 43 -27 67
-34 71 -17 152 -20 202 -5 17 5 35 6 39 3 4 -4 4 -1 0 5 -6 11 4 17 25 15 4
-1 21 12 38 28 17 17 31 27 31 23 0 -4 14 7 30 25 17 18 30 40 30 48 0 8 4 12
10 9 6 -3 10 1 10 9 0 9 5 16 11 16 5 0 8 4 5 8 -8 13 19 83 29 75 4 -5 2 3
-5 16 -7 14 -8 26 -3 30 11 7 9 63 -2 82 -6 8 -4 10 4 4 10 -6 11 -3 2 13 -6
11 -11 30 -11 41 0 12 -4 21 -8 21 -5 0 -9 6 -9 13 0 18 -43 87 -55 87 -5 0
-6 4 -3 10 3 5 3 10 -2 10 -4 0 -22 14 -40 30 -18 17 -35 30 -39 30 -4 0 -15
6 -23 13 -21 18 -99 46 -134 49 -15 1 -27 5 -27 8 0 3 -31 6 -70 6 -47 1 -67
-3 -63 -10 4 -6 0 -5 -9 2 -9 7 -19 9 -21 5 -3 -5 -20 -10 -38 -11 -18 -1 -38
-7 -44 -12 -7 -5 -15 -7 -18 -3 -4 3 -7 2 -7 -4 0 -5 -6 -10 -14 -10 -18 0
-86 -42 -86 -54 0 -5 -3 -8 -7 -8 -17 3 -36 -1 -31 -7 7 -7 -39 -54 -53 -54
-6 0 -8 -4 -5 -8 3 -5 -5 -20 -17 -33 -12 -13 -21 -27 -20 -31 2 -5 -1 -8 -6
-8 -5 0 -15 -17 -22 -37 -6 -21 -15 -43 -20 -48 -8 -11 -25 -94 -21 -107 1 -5
-2 -8 -6 -8 -4 0 -7 -19 -5 -43 6 -105 11 -138 23 -152 7 -8 9 -15 4 -15 -4 0
-3 -5 4 -12 7 -7 12 -20 12 -30 0 -10 4 -18 9 -18 5 0 12 -8 16 -19 3 -10 13
-28 23 -39 70 -84 88 -102 95 -102 5 0 18 -11 29 -26 11 -14 22 -23 25 -20 3
2 13 -3 22 -12 26 -25 58 -45 66 -43 4 2 11 -1 14 -6 10 -14 70 -53 81 -53 6
0 18 -4 28 -9 28 -15 116 -45 125 -43 4 1 22 -4 40 -11 17 -8 37 -12 44 -10 7
2 20 0 30 -5 10 -5 27 -6 38 -2 11 4 26 3 33 -2 8 -7 12 -6 12 3 0 9 3 10 8 4
7 -10 112 -15 112 -5 0 3 19 6 43 7 76 4 107 8 107 13 0 3 12 5 28 4 15 -1 33
3 40 9 8 6 12 5 12 -4 0 -10 3 -11 8 -3 4 7 25 15 47 18 47 8 82 14 110 20 11
3 33 5 48 5 16 1 26 4 24 9 -3 4 14 7 36 6 23 0 45 5 49 10 5 7 8 7 8 -1 0 -7
7 -10 16 -6 28 11 69 10 77 -1 5 -8 9 -8 15 -1 6 9 42 12 57 5 3 -1 13 -3 23
-4 9 -1 33 -6 52 -11 19 -5 38 -10 43 -11 4 -1 10 -3 15 -4 4 -1 10 -2 15 -1
4 0 7 -3 7 -8 0 -5 10 -11 23 -15 12 -3 34 -16 48 -30 15 -14 30 -22 33 -19 3
4 6 1 6 -5 0 -7 14 -25 31 -42 18 -16 29 -30 25 -30 -4 0 -1 -7 6 -15 31 -34
40 -52 41 -82 0 -7 4 -13 9 -13 4 0 8 -9 8 -20 0 -11 3 -20 8 -20 4 0 7 -10 7
-22 1 -13 4 -36 8 -51 6 -21 5 -27 -4 -21 -8 5 -9 3 -3 -7 12 -20 12 -109 -1
-109 -5 0 -3 -5 5 -10 12 -8 12 -10 1 -10 -8 0 -11 -7 -8 -20 3 -11 1 -23 -4
-26 -5 -3 -7 -9 -4 -14 3 -4 -2 -13 -10 -20 -8 -7 -13 -16 -10 -20 6 -10 -45
-110 -56 -110 -5 0 -9 -6 -9 -13 0 -7 -18 -26 -40 -43 -22 -16 -40 -32 -40
-36 0 -5 -6 -8 -14 -8 -7 0 -19 -7 -26 -15 -6 -8 -15 -14 -18 -13 -4 1 -20 -4
-36 -11 -16 -6 -36 -9 -43 -7 -9 4 -11 1 -7 -6 5 -8 2 -9 -9 -5 -10 4 -17 2
-17 -4 0 -6 -9 -9 -20 -6 -11 3 -20 2 -20 -1 0 -12 -134 -6 -157 6 -15 8 -24
9 -28 2 -4 -7 -20 -2 -43 12 -22 13 -32 16 -27 7 7 -12 6 -11 -11 1 -10 8 -22
20 -26 25 -4 6 -8 6 -8 2 0 -9 -18 4 -76 61 -25 23 -42 47 -39 52 3 6 3 10 -2
10 -26 0 -47 131 -30 190 10 36 27 70 36 70 5 0 13 9 16 20 3 11 13 20 20 20
8 0 20 8 27 19 7 10 18 19 23 21 18 5 30 8 64 19 18 6 37 8 42 5 5 -3 9 0 9 6
0 8 6 8 20 0 15 -8 20 -8 20 1 0 8 4 8 15 -1 8 -7 15 -9 15 -5 0 4 7 2 15 -5
8 -7 15 -9 15 -5 0 4 7 2 15 -5 8 -7 15 -10 15 -6 0 3 12 -4 27 -17 39 -32 83
-80 78 -85 -2 -2 4 -12 13 -22 10 -11 17 -35 17 -57 0 -48 31 -89 53 -70 8 6
17 11 19 9 5 -4 35 14 34 21 -1 4 -1 8 0 10 6 17 4 47 -4 47 -5 0 -7 7 -4 15
4 8 2 17 -3 20 -5 3 -7 14 -5 24 2 11 -3 22 -12 25 -8 3 -13 12 -11 18 6 16
-103 128 -125 128 -9 0 -21 8 -26 18 -6 9 -11 13 -11 8 0 -5 -7 -2 -17 5 -9 8
-18 13 -20 12 -1 -2 -4 -3 -5 -2 -45 13 -178 20 -178 9 0 -4 -8 -7 -17 -5 -10
1 -31 -4 -46 -12 -16 -8 -31 -12 -34 -10 -2 3 -16 -6 -30 -19 -14 -13 -28 -22
-30 -20 -6 5 -85 -81 -83 -90 1 -4 -4 -10 -12 -15 -7 -5 -13 -12 -13 -16 -1
-4 -6 -18 -13 -29 -6 -12 -8 -24 -5 -28 3 -3 1 -6 -5 -6 -6 0 -9 -9 -7 -20 2
-11 0 -22 -6 -25 -5 -4 -5 -14 1 -26 8 -13 7 -19 0 -19 -6 0 -8 -5 -4 -12 4
-7 9 -24 10 -38 1 -14 5 -36 9 -50 4 -14 7 -31 7 -37 1 -7 4 -13 8 -13 4 0 12
-11 18 -25 13 -29 22 -40 75 -95 21 -22 42 -40 46 -40 5 0 14 -7 21 -15 7 -9
19 -14 27 -11 7 3 13 1 13 -4 0 -11 99 -48 142 -53 19 -2 38 -5 43 -8 9 -5 81
-3 178 3 15 1 27 6 27 11 0 5 9 7 20 4 11 -3 23 -1 26 4 3 5 10 7 15 4 5 -4 9
-1 9 4 0 6 3 10 8 8 12 -4 102 36 102 46 0 4 5 5 10 2 6 -3 10 -1 10 4 0 6 5
11 12 11 6 0 25 15 41 33 17 17 26 25 22 17 -4 -8 6 1 23 20 17 19 34 43 37
53 4 9 11 17 16 17 6 0 8 4 4 9 -3 6 3 14 12 20 10 6 15 11 10 11 -4 0 -1 10
8 23 8 13 12 27 8 30 -3 4 -2 7 4 7 5 0 10 6 11 13 0 6 3 23 7 37 4 14 8 33 8
43 1 9 5 17 9 17 4 0 5 9 3 20 -2 11 1 22 7 26 7 4 6 9 -2 14 -8 5 -9 13 -4
21 11 17 11 38 2 65 -3 12 -2 26 5 33 6 6 7 11 1 11 -5 0 -10 12 -11 28 -4 39
-8 55 -15 68 -4 6 -9 23 -12 39 -3 16 -11 32 -18 37 -7 4 -10 8 -5 8 4 0 1 13
-8 30 -8 16 -16 33 -17 37 -1 5 -13 18 -27 30 -13 13 -21 23 -17 23 4 0 -7 13
-23 30 -17 16 -27 32 -22 35 6 3 12 1 16 -5 4 -6 11 -8 16 -5 5 4 9 1 9 -5 0
-6 5 -8 10 -5 11 7 76 -13 99 -30 12 -8 13 -7 6 5 -7 13 -6 13 11 -1 22 -18
76 -43 87 -41 4 1 7 -3 7 -10 0 -6 3 -9 6 -5 4 3 12 1 20 -6 33 -30 44 -37 44
-31 0 4 13 -7 29 -24 16 -16 32 -28 35 -24 3 3 6 1 6 -5 0 -6 18 -30 40 -54
42 -45 113 -176 104 -191 -3 -4 1 -8 8 -8 9 -1 7 -5 -4 -14 -10 -7 -15 -16
-11 -19 3 -4 1 -7 -5 -7 -13 0 -97 -80 -97 -92 0 -5 -5 -12 -11 -16 -6 -4 -20
-23 -30 -42 -19 -37 -21 -41 -23 -66 0 -8 -5 -13 -10 -10 -5 4 -8 -2 -7 -11 2
-10 0 -30 -5 -45 -5 -19 -4 -28 4 -28 7 0 6 -4 -3 -10 -13 -9 -13 -10 0 -10 9
0 11 -3 5 -8 -9 -6 -11 -26 -5 -42 1 -3 4 -16 7 -30 2 -14 6 -29 8 -35 2 -5 6
-20 10 -32 4 -12 6 -25 5 -29 -1 -4 2 -10 7 -13 16 -11 46 -64 32 -56 -8 4 -4
-1 7 -13 12 -11 31 -36 43 -56 13 -20 28 -36 33 -36 6 0 9 -2 6 -5 -7 -7 69
-85 82 -85 4 0 10 -5 12 -11 3 -8 17 -10 42 -5 21 4 36 9 33 12 -2 3 22 32 54
64 33 33 57 60 53 60 -3 0 6 13 19 30 14 16 28 39 32 50 3 11 11 20 16 20 5 0
8 3 7 8 -1 4 4 21 11 37 7 17 15 38 17 48 2 9 6 27 9 40 11 41 4 179 -8 188
-5 3 -10 12 -11 20 -4 20 -39 91 -56 113 -8 10 -36 41 -62 67 -25 26 -44 50
-41 53 4 3 1 6 -6 6 -8 0 -6 10 6 33 9 17 16 35 15 40 -1 4 3 7 8 7 6 0 10 9
10 20 0 11 4 20 9 20 5 0 12 9 16 19 8 27 90 109 150 153 52 37 176 98 200 98
8 0 16 4 19 9 3 4 16 8 28 7 13 -1 25 2 28 6 3 4 19 9 35 12 28 5 29 4 11 -9
-11 -8 -17 -15 -13 -15 4 0 -9 -17 -28 -37 -19 -20 -35 -40 -35 -44 0 -4 -7
-15 -16 -23 -12 -12 -12 -16 -2 -16 9 -1 9 -4 -3 -13 -26 -20 -59 -127 -62
-204 -1 -24 -4 -43 -7 -43 -3 0 -6 -11 -6 -25 -1 -14 2 -22 7 -19 5 3 9 0 9
-5 0 -6 -4 -11 -9 -11 -5 0 -5 -16 0 -37 4 -21 8 -39 9 -40 0 -2 0 -4 1 -5 0
-2 2 -14 4 -28 7 -42 11 -53 28 -94 9 -21 17 -42 17 -46 0 -4 7 -13 15 -20 9
-7 13 -15 11 -17 -2 -3 5 -17 17 -31 34 -41 130 -132 135 -127 2 2 11 -3 19
-11 8 -8 19 -12 24 -9 5 4 9 3 9 -2 0 -9 48 -33 67 -33 7 0 13 -4 13 -8 0 -5
6 -9 13 -10 6 0 28 -4 47 -8 19 -4 87 -7 150 -7 141 2 150 2 150 12 0 4 7 8
15 9 8 1 22 3 30 4 8 1 15 6 15 11 0 6 3 8 6 4 4 -3 19 0 35 9 16 8 31 14 34
15 2 0 19 13 37 29 18 17 36 30 41 30 4 0 6 4 2 9 -3 5 4 12 15 16 11 3 20 13
20 21 0 8 5 14 10 14 6 0 10 5 10 11 0 6 9 23 20 38 10 15 21 40 24 54 2 15 8
31 11 37 9 15 8 138 -2 153 -4 7 -8 18 -9 24 -4 23 -29 73 -36 73 -5 0 -8 5
-8 11 0 15 -66 80 -73 73 -3 -3 -8 4 -12 15 -3 11 -12 18 -19 15 -7 -3 -19 2
-26 11 -7 8 -21 15 -31 15 -11 0 -19 4 -19 8 0 9 -3 10 -57 13 -18 1 -30 5
-28 9 5 8 -55 3 -63 -5 -3 -2 -14 0 -25 6 -14 8 -18 8 -13 0 5 -7 -4 -11 -24
-11 -21 0 -29 -4 -24 -12 4 -7 3 -8 -5 -4 -11 7 -77 -22 -107 -47 -51 -44 -72
-69 -97 -115 -16 -29 -25 -52 -21 -52 3 0 2 -6 -3 -12 -17 -23 -16 -93 2 -108
42 -35 92 -5 90 55 0 19 3 35 6 35 7 0 21 34 22 50 0 3 23 26 51 52 44 43 63
53 89 49 4 0 7 4 7 10 0 6 9 8 21 4 15 -5 19 -4 15 4 -9 14 16 10 26 -4 5 -6
8 -5 8 4 0 11 3 11 15 1 11 -9 15 -9 15 -1 0 9 5 9 20 1 11 -6 25 -8 30 -5 6
3 10 1 10 -6 0 -7 3 -9 6 -6 4 4 20 -3 35 -14 16 -11 29 -18 29 -15 0 3 15 -9
33 -27 19 -18 32 -35 30 -39 -2 -5 0 -8 4 -8 5 0 16 -20 25 -45 12 -33 14 -45
5 -45 -8 0 -7 -3 2 -9 7 -5 10 -14 7 -20 -4 -6 -1 -11 6 -11 8 0 9 -3 3 -8 -5
-4 -11 -20 -13 -37 -2 -16 -8 -33 -14 -36 -5 -3 -9 -10 -9 -15 2 -16 -33 -73
-41 -68 -4 3 -8 -1 -8 -8 0 -8 -9 -20 -21 -28 -11 -8 -30 -23 -41 -32 -11 -10
-25 -15 -29 -12 -5 3 -12 -1 -15 -10 -3 -8 -12 -12 -20 -9 -8 3 -14 1 -14 -5
0 -12 -114 -37 -129 -28 -6 4 -11 1 -11 -6 0 -10 -2 -10 -9 1 -5 7 -10 9 -12
4 -2 -6 -21 -8 -41 -5 -25 3 -36 8 -31 16 4 8 2 7 -7 -1 -9 -8 -20 -9 -39 -2
-14 6 -28 11 -31 11 -33 4 -126 49 -153 74 -14 12 -28 20 -31 17 -3 -4 -6 -2
-6 3 0 5 -13 24 -29 43 -29 34 -33 41 -67 116 -19 42 -22 54 -26 97 -1 16 -6
28 -11 28 -5 0 -4 6 2 13 6 8 7 17 3 21 -11 12 -10 60 2 68 7 5 6 8 -3 8 -11
0 -11 3 -1 15 10 12 10 15 -1 15 -9 0 -10 3 -3 8 6 4 10 17 9 29 -1 13 2 23 7
23 4 0 8 5 8 11 0 5 -6 7 -12 4 -7 -4 -4 1 6 9 11 9 16 16 10 16 -5 0 -2 5 6
10 13 9 13 10 0 10 -13 0 -13 1 0 10 8 5 16 13 16 17 5 26 18 53 25 53 5 0 9
6 9 13 0 6 12 23 25 36 14 13 25 27 25 32 0 5 7 9 16 9 8 0 13 4 10 9 -6 8 16
23 39 26 6 0 9 6 8 13 -2 7 3 12 11 12 7 0 31 8 52 17 44 19 47 20 89 28 17 3
35 8 42 10 7 2 15 0 18 -6 4 -5 12 -6 18 -2 14 9 167 12 162 3 -2 -3 17 -5 42
-5 24 1 46 -2 48 -5 2 -3 20 -7 41 -8 20 -2 42 -6 48 -9 11 -7 55 -15 94 -16
12 -1 22 -4 22 -7 0 -4 6 -7 13 -7 36 -1 124 -16 139 -24 11 -6 19 -5 24 2 4
8 9 7 15 -2 7 -11 9 -11 9 -1 0 9 6 10 18 4 14 -7 217 -9 217 -2 0 1 14 3 30
5 79 6 285 77 285 97 0 5 5 6 10 3 6 -3 10 -1 10 5 0 6 5 8 10 5 6 -3 10 -1
10 5 0 6 5 8 10 5 6 -3 10 -1 10 5 0 6 5 8 10 5 6 -3 10 -2 10 3 0 5 19 22 42
37 23 15 61 48 85 72 24 23 47 43 53 43 5 0 10 6 10 14 0 8 8 21 19 28 22 16
81 112 81 133 0 8 4 15 8 15 4 0 9 12 10 28 2 26 8 62 12 72 6 15 4 36 -4 41
-5 4 -5 13 0 20 11 18 14 39 5 39 -4 0 -8 12 -9 28 -4 46 -7 55 -40 135 -9 20
-20 37 -26 37 -5 0 -6 3 -3 6 12 12 -78 118 -129 152 -10 7 -13 10 -5 6 9 -5
12 -3 7 5 -4 6 -11 9 -16 6 -5 -3 -11 -1 -15 5 -6 9 -63 38 -90 44 -14 4 -47
16 -65 24 -42 19 -300 -5 -300 -29 0 -4 -9 -6 -20 -4 -11 2 -18 0 -15 -5 3 -5
-5 -12 -17 -16 -13 -4 -28 -14 -35 -23 -7 -9 -13 -12 -13 -8 0 9 -61 -55 -91
-96 -11 -15 -17 -27 -12 -27 4 0 3 -4 -3 -8 -14 -9 -35 -72 -28 -83 3 -5 1 -9
-4 -9 -6 0 -9 -18 -7 -40 2 -29 0 -38 -8 -33 -9 5 -9 3 0 -8 6 -8 13 -30 15
-49 5 -40 12 -60 36 -109 22 -45 68 -102 75 -94 4 3 9 -2 13 -11 3 -9 12 -16
20 -16 8 0 14 -3 14 -8 0 -9 77 -44 105 -48 29 -3 99 -6 105 -4 3 1 22 3 44 5
21 2 41 7 45 12 6 8 27 15 48 16 7 0 10 4 7 9 -3 4 2 8 10 8 9 0 16 5 16 10 0
6 7 10 16 10 8 0 13 4 9 9 -3 5 4 12 15 16 11 3 20 12 20 20 0 7 5 15 11 17 5
2 11 11 13 20 1 10 5 21 9 24 4 4 7 16 7 26 0 10 5 18 11 18 8 0 8 4 1 13 -7
8 -7 18 -2 27 5 8 5 19 1 25 -8 10 -24 61 -25 80 -1 6 -13 22 -28 36 -15 15
-24 30 -20 34 4 5 1 5 -6 1 -7 -4 -14 -1 -17 7 -3 7 -21 20 -40 27 -19 8 -35
18 -35 23 0 5 -6 4 -14 -2 -8 -7 -17 -8 -20 -3 -3 5 -27 7 -53 5 -68 -4 -73
-5 -73 -16 0 -5 -7 -7 -15 -3 -8 3 -15 0 -15 -6 0 -6 -3 -9 -6 -5 -8 8 -84
-73 -84 -89 0 -7 -6 -15 -12 -18 -10 -5 -10 -7 0 -12 6 -3 10 -9 7 -13 -2 -5
3 -17 11 -27 9 -10 12 -13 9 -6 -6 11 -3 11 14 0 18 -11 23 -10 36 7 9 11 13
14 9 6 -5 -9 -3 -12 4 -7 7 4 12 14 12 22 0 8 5 14 10 14 6 0 10 7 10 16 0 8
5 12 10 9 6 -3 10 -2 10 2 0 12 50 29 80 28 40 -3 90 -26 90 -41 0 -8 6 -17
14 -20 8 -3 12 -12 9 -20 -3 -8 0 -14 6 -14 6 0 11 -18 11 -41 0 -22 -4 -38
-9 -35 -5 4 -7 -3 -4 -14 3 -11 0 -20 -6 -20 -6 0 -11 -5 -11 -11 0 -15 -26
-39 -34 -32 -3 4 -6 0 -6 -7 0 -7 -3 -10 -7 -7 -3 4 -11 0 -17 -9 -6 -8 -28
-16 -49 -17 -20 -1 -37 -6 -37 -10 0 -5 -8 -6 -17 -3 -10 3 -33 7 -50 8 -18 1
-33 6 -33 11 0 5 -7 6 -15 3 -9 -3 -18 1 -21 9 -4 8 -11 15 -17 15 -14 0 -77
72 -71 82 3 4 -1 11 -9 14 -9 3 -13 13 -10 25 3 10 1 19 -5 19 -5 0 -12 14
-14 30 -3 17 -1 30 4 30 5 0 6 5 2 12 -10 16 -11 58 -2 58 4 0 7 3 6 8 -5 15
20 68 45 94 14 15 22 29 19 32 -3 3 2 6 11 6 10 0 17 4 17 10 0 11 60 44 60
33 0 -5 4 -2 9 6 5 8 15 16 23 17 7 2 24 6 38 10 14 3 44 7 67 7 25 0 40 4 36
10 -3 6 -1 7 6 3 6 -4 24 -9 39 -12 50 -8 132 -37 132 -45 0 -5 6 -9 14 -9 8
0 35 -20 62 -45 26 -25 44 -45 39 -45 -4 0 2 -8 13 -19 12 -10 22 -23 22 -30
0 -6 4 -11 10 -11 5 0 9 -3 8 -7 -1 -5 3 -17 9 -28 6 -11 11 -22 11 -25 0 -3
5 -24 11 -48 7 -23 9 -47 6 -52 -3 -6 0 -10 7 -10 8 0 9 -3 3 -8 -5 -4 -11
-27 -11 -52 -1 -25 -4 -54 -7 -65 -10 -39 -44 -105 -50 -98 -4 3 -7 0 -7 -9 0
-8 -11 -25 -25 -38 -13 -12 -22 -26 -20 -30 3 -4 -9 -13 -26 -20 -16 -7 -36
-22 -44 -34 -8 -11 -15 -16 -15 -11 0 6 -7 1 -15 -9 -8 -11 -15 -16 -15 -12 0
5 -7 3 -15 -4 -8 -7 -15 -9 -15 -4 0 5 -4 3 -9 -4 -4 -7 -18 -14 -29 -15 -12
-1 -22 -5 -22 -10 0 -5 -7 -7 -15 -3 -8 3 -15 2 -15 -3 0 -4 -6 -8 -12 -9 -31
-2 -103 -11 -103 -12 0 -1 -8 -3 -17 -5 -10 -2 -18 1 -18 6 0 5 -5 9 -11 9 -5
0 -8 -3 -6 -7 6 -10 -42 -8 -65 2 -10 4 -25 5 -33 1 -8 -3 -15 -1 -15 5 0 6
-4 7 -10 4 -5 -3 -16 -3 -22 2 -7 4 -20 9 -29 10 -9 1 -29 8 -45 14 -16 7 -32
12 -36 11 -5 -1 -8 3 -8 9 0 5 -4 8 -9 4 -5 -3 -16 1 -24 9 -8 8 -17 13 -19
10 -3 -2 -11 2 -18 11 -7 8 -18 15 -24 15 -21 0 -186 148 -186 167 0 7 -4 13
-10 13 -5 0 -10 5 -10 11 0 6 -7 17 -15 26 -8 8 -13 18 -10 23 3 4 -2 11 -11
14 -8 3 -12 10 -9 16 3 5 1 10 -5 10 -6 0 -8 5 -5 10 3 6 1 10 -6 10 -7 0 -10
3 -6 6 3 4 0 19 -8 34 -8 15 -11 30 -8 34 4 3 1 6 -6 6 -7 0 -9 4 -6 10 3 6 1
10 -5 10 -6 0 -8 5 -5 10 4 6 0 21 -8 34 -11 16 -12 27 -5 34 6 6 6 12 -1 16
-5 4 -8 13 -4 21 3 8 0 15 -7 15 -10 0 -10 3 0 15 7 9 8 15 2 15 -13 0 -13
251 0 268 7 8 6 12 -3 12 -12 0 -12 2 -1 9 8 4 13 11 13 15 -10 73 8 92 57 58
24 -17 54 -31 75 -37 4 -2 10 -4 15 -5 4 -1 10 -2 15 -1 4 0 7 -3 7 -7 0 -5 6
-9 13 -10 36 -3 64 -10 83 -20 12 -6 24 -9 26 -6 3 3 45 7 94 10 117 6 124 7
124 17 0 4 4 5 10 2 5 -3 28 3 50 14 23 11 49 17 57 14 10 -4 14 -2 10 4 -4 6
5 16 21 22 70 27 154 97 132 111 -9 6 -9 9 1 13 10 4 10 6 2 6 -7 1 -13 8 -13
16 0 13 -4 16 -25 15 -5 0 -20 10 -54 40 -9 8 -26 17 -36 18 -11 2 -27 10 -36
18 -19 17 -33 19 -23 3 5 -8 1 -8 -14 0 -12 6 -24 15 -27 21 -3 5 -12 7 -20 3
-8 -3 -15 -1 -15 5 0 6 -11 9 -25 7 -14 -1 -25 1 -25 6 0 4 -18 7 -40 6 -22
-2 -40 0 -40 3 0 8 -101 6 -115 -1 -5 -3 -20 -4 -32 -3 -13 0 -23 -2 -23 -7 0
-5 -7 -6 -15 -3 -8 3 -20 2 -27 -2 -13 -9 -33 -14 -55 -16 -7 -1 -13 -5 -13
-10 0 -4 -7 -8 -15 -8 -17 0 -65 -28 -77 -45 -4 -5 -8 -1 -8 10 0 17 -2 18
-11 5 -9 -12 -10 -11 -6 7 3 13 1 25 -3 28 -5 3 -7 14 -5 25 2 11 -1 22 -7 26
-6 4 -5 10 3 15 8 5 9 9 3 9 -6 0 -11 10 -10 23 1 12 -1 34 -5 50 -4 15 -5 27
-1 27 4 0 7 39 6 88 0 48 2 92 5 97 7 12 10 29 13 72 2 18 9 35 16 38 7 3 10
10 7 15 -4 6 -1 18 7 27 10 13 10 15 0 9 -12 -7 -5 9 52 121 11 24 25 43 29
43 5 0 5 5 2 10 -3 6 -1 10 4 10 6 0 11 5 11 10 0 6 20 30 44 55 24 24 42 46
38 49 -3 3 0 6 6 6 7 0 21 8 31 18 36 32 50 42 60 42 5 0 12 7 15 16 3 8 10
13 15 10 5 -3 14 1 21 9 7 8 16 12 21 9 5 -3 9 0 9 6 0 6 4 9 9 5 5 -3 13 0
16 6 4 5 14 8 22 5 8 -3 12 -2 9 2 -6 10 99 43 145 47 16 1 32 5 36 8 3 4 15
2 26 -4 14 -8 18 -8 13 0 -4 6 -1 11 8 11 8 0 18 -5 21 -10 4 -6 12 -7 18 -3
15 9 58 13 53 5 -2 -4 10 -7 27 -6 18 0 38 -4 45 -9 6 -5 12 -6 12 -2 0 4 7 2
15 -5 8 -7 15 -9 15 -5 0 4 7 2 15 -5 8 -6 18 -9 24 -6 5 3 11 -1 15 -9 3 -8
11 -15 18 -15 7 0 23 -12 35 -27 13 -14 23 -21 23 -15 0 5 28 -18 63 -51 80
-79 132 -151 95 -132 -7 4 -6 1 2 -7 8 -7 17 -20 19 -28 8 -30 10 -169 2 -174
-4 -3 -7 -19 -6 -35 1 -17 -2 -28 -6 -25 -4 2 -10 -9 -14 -26 -4 -16 -11 -30
-16 -30 -6 0 -7 -4 -4 -10 3 -5 1 -10 -4 -10 -6 0 -11 -6 -11 -12 0 -16 -76
-98 -90 -98 -6 0 -9 -4 -6 -8 3 -5 -11 -14 -30 -21 -18 -7 -34 -16 -34 -20 0
-4 -7 -8 -15 -9 -8 -1 -22 -3 -30 -4 -8 -1 -15 -4 -15 -8 0 -4 -13 -6 -30 -5
-16 1 -30 -1 -30 -4 0 -6 -69 -7 -80 -1 -3 1 -16 3 -30 4 -14 0 -29 4 -35 7
-5 4 -18 5 -27 4 -10 -2 -18 0 -18 5 0 4 -14 13 -30 20 -43 18 -137 114 -131
134 1 3 -6 20 -15 37 -8 17 -11 28 -5 25 6 -4 11 -2 11 3 0 6 -4 11 -8 11 -4
0 -8 9 -8 20 0 11 3 20 6 20 4 0 6 17 5 38 -2 23 4 46 16 61 11 13 19 29 19
35 0 14 42 52 53 48 4 -1 7 5 7 14 0 8 5 12 10 9 6 -3 10 -2 10 3 0 12 49 34
60 27 5 -3 11 -1 14 3 6 11 86 9 104 -2 7 -4 17 -4 22 -1 6 3 13 -1 16 -9 3
-9 10 -14 14 -11 11 7 82 -63 75 -75 -3 -5 -1 -10 5 -10 8 0 10 -15 6 -47 -4
-27 -7 -53 -8 -60 -1 -7 -8 -15 -15 -17 -8 -3 -11 -11 -7 -17 4 -8 3 -9 -4 -5
-7 4 -12 2 -12 -4 0 -6 -4 -9 -9 -6 -5 3 -11 -1 -15 -9 -3 -8 -16 -14 -28 -13
-13 0 -27 0 -33 -2 -31 -9 -78 16 -106 56 -19 26 -37 40 -45 37 -8 -3 -14 0
-14 6 0 7 -10 5 -24 -6 -13 -10 -22 -21 -19 -25 2 -5 -2 -8 -9 -8 -9 0 -9 -3
2 -10 11 -7 12 -10 2 -10 -10 0 -10 -3 2 -15 8 -8 17 -23 21 -33 3 -11 16 -25
30 -32 13 -7 22 -18 18 -23 -3 -6 -1 -7 5 -3 6 3 17 -1 26 -9 8 -9 18 -15 21
-15 3 1 19 -1 36 -5 48 -11 109 -13 109 -3 0 4 8 8 18 8 10 0 23 5 30 12 7 7
12 9 12 5 0 -8 5 -4 52 37 23 20 59 76 64 99 1 4 2 8 4 10 2 2 10 46 11 62 0
6 -2 21 -6 35 -3 14 -7 30 -9 35 -1 6 -7 20 -14 31 -6 12 -8 25 -4 29 4 5 2 5
-4 2 -11 -6 -29 19 -26 36 1 4 -5 7 -13 7 -8 0 -15 5 -15 10 0 6 -7 10 -15 10
-8 0 -15 5 -15 10 0 6 -7 10 -15 10 -8 0 -15 5 -15 11 0 6 -7 9 -15 5 -8 -3
-19 2 -24 12 -8 14 -10 14 -11 2 0 -12 -2 -13 -9 -1 -6 10 -31 13 -87 13 -88
-1 -99 -2 -131 -20 -13 -7 -23 -10 -23 -6 0 4 -9 -1 -20 -11 -11 -10 -20 -14
-20 -9 0 4 -27 -20 -60 -54 -33 -34 -60 -68 -60 -76 0 -7 -7 -16 -15 -20 -8
-3 -12 -12 -9 -21 4 -8 2 -21 -4 -28 -15 -17 -23 -155 -10 -163 6 -4 5 -10 -3
-15 -11 -7 -11 -9 -1 -9 7 0 11 -4 8 -8 -9 -15 42 -111 78 -148 19 -20 36 -40
38 -44 2 -5 10 -10 18 -12 8 -2 22 -11 31 -20 9 -10 19 -15 23 -11 3 3 6 1 6
-5 0 -7 9 -12 19 -12 11 0 23 -5 26 -10 4 -6 10 -8 15 -5 5 3 12 0 15 -6 4 -5
13 -8 21 -5 7 3 16 1 19 -5 4 -5 10 -7 15 -4 5 3 11 1 15 -5 4 -7 12 -7 24 0
10 5 21 6 25 3 9 -9 67 -13 62 -5 -2 4 16 6 40 5 24 -1 44 2 44 7 0 4 8 7 17
6 9 -2 29 4 45 11 15 8 33 11 39 7 7 -4 9 -3 6 2 -3 6 8 16 25 23 17 8 39 21
49 30 9 9 33 31 53 49 19 17 32 32 29 32 -4 0 2 9 13 20 37 37 59 74 56 93 -1
4 3 7 8 7 5 0 9 3 8 8 -2 11 14 46 26 54 7 5 6 8 -3 8 -11 0 -11 3 -1 15 7 8
9 15 5 15 -5 0 0 10 11 22 10 12 14 18 8 15 -8 -5 -11 5 -11 28 1 19 5 35 9
35 5 0 4 9 -2 20 -8 15 -8 20 2 20 8 0 9 3 3 8 -12 8 -16 25 -17 64 -1 15 -5
28 -10 28 -4 0 -8 8 -8 18 0 22 -22 72 -32 72 -5 0 -8 5 -8 10 0 15 -41 72
-63 88 -9 7 -15 18 -12 23 4 5 -1 9 -9 9 -9 0 -16 5 -16 10 0 6 -7 10 -16 10
-8 0 -13 4 -10 9 4 5 -7 15 -24 23 -16 7 -30 16 -30 19 0 3 -18 14 -40 24 -22
10 -40 23 -40 28 0 6 -3 7 -6 4 -4 -4 -19 2 -34 13 -16 11 -33 20 -39 20 -6 0
-11 4 -11 9 0 5 -13 12 -30 16 -16 4 -34 14 -40 23 -5 9 -10 12 -10 5 0 -7
-12 -5 -37 7 -33 15 -118 36 -118 29 0 -1 -11 3 -24 10 -19 10 -22 10 -16 0 6
-9 4 -10 -6 -3 -8 5 -35 9 -60 10 -25 1 -50 3 -55 6 -5 3 -18 4 -29 1 -11 -2
-45 -6 -75 -7 -30 -2 -55 -5 -55 -6 0 -1 -16 -3 -35 -4 -19 -1 -57 -6 -85 -11
-27 -5 -54 -8 -59 -7 -4 2 -13 -1 -20 -6 -6 -5 -21 -8 -33 -7 -13 1 -23 -1
-23 -5 0 -3 -8 -6 -17 -7 -20 -2 -60 -8 -113 -18 -19 -4 -45 -6 -58 -6 -13 1
-20 -4 -17 -9 4 -6 -2 -7 -17 -1 -13 4 -31 6 -40 2 -23 -8 -132 -6 -146 3 -7
4 -12 2 -12 -4 0 -7 -5 -8 -12 -3 -15 9 -10 8 -66 18 -24 4 -50 14 -57 22 -8
7 -16 14 -17 14 -15 -1 -48 13 -48 20 0 5 -7 9 -16 9 -8 0 -12 5 -9 10 3 6 -1
10 -9 10 -9 0 -16 5 -16 10 0 6 -8 10 -17 10 -9 0 -14 3 -10 6 3 3 1 11 -4 18
-38 45 -48 60 -64 98 -11 24 -22 45 -25 48 -3 3 -6 14 -8 25 -6 44 -10 60 -12
60 -1 0 -4 42 -6 93 -1 50 1 92 6 92 5 0 7 9 5 20 -2 11 0 20 5 20 5 0 7 7 3
15 -3 9 3 25 13 37 11 12 14 18 7 15 -7 -5 -6 4 3 23 9 16 19 30 24 30 5 0 7
7 4 15 -4 8 1 17 10 21 9 3 16 11 16 16 0 15 100 105 100 91 0 -4 4 -3 8 2 10
15 72 47 72 39 0 -5 5 -3 12 4 7 7 20 12 29 12 10 0 20 6 22 13 4 9 6 9 6 -1
1 -9 6 -10 19 -3 20 11 131 19 147 11 6 -3 25 -5 43 -5 17 0 32 -3 32 -7 0 -4
9 -8 19 -8 24 0 99 -38 131 -67 14 -13 28 -23 32 -23 5 0 8 -7 8 -16 0 -8 5
-12 10 -9 6 3 10 -3 10 -13 0 -11 7 -23 16 -26 9 -3 14 -13 11 -20 -3 -8 -2
-16 4 -18 19 -6 31 -105 16 -126 -6 -7 -7 -15 -4 -19 3 -3 0 -18 -9 -34 -8
-16 -12 -29 -8 -29 4 0 -17 -22 -46 -50 -29 -27 -56 -48 -60 -45 -5 3 -10 1
-12 -5 -2 -6 -13 -12 -26 -15 -12 -3 -32 -8 -44 -11 -22 -5 -58 -7 -86 -5 -8
1 -10 6 -6 14 6 9 4 9 -8 -1 -11 -9 -18 -10 -23 -2 -3 5 -13 10 -21 10 -15 0
-82 45 -96 64 -4 6 -4 14 -2 18 3 4 -3 5 -13 1 -10 -3 -15 -3 -11 2 4 4 3 14
-3 22 -6 7 -8 13 -3 13 5 0 3 4 -5 9 -7 5 -15 26 -17 47 -2 22 -5 45 -6 51 -3
25 -65 35 -87 15 -15 -14 -17 -94 -4 -116 4 -6 9 -20 10 -31 2 -11 8 -21 13
-23 6 -2 10 -9 10 -16 0 -15 86 -106 100 -106 5 0 10 -4 10 -10 0 -5 9 -10 21
-10 11 0 18 -4 15 -8 -2 -4 5 -9 16 -9 12 -1 24 -7 28 -13 4 -7 10 -11 14 -11
3 1 9 0 14 0 4 -1 15 -1 24 0 10 1 25 -2 35 -8 12 -6 25 -6 36 0 12 7 17 6 17
-2 0 -8 4 -8 15 1 8 7 22 10 30 6 8 -3 15 -2 15 3 0 5 6 9 13 8 35 -1 48 4 41
16 -5 7 0 6 11 -3 10 -8 16 -10 12 -3 -7 10 47 38 66 34 5 -1 6 3 2 9 -3 5 2
13 11 17 23 9 54 40 47 47 -4 3 -1 6 5 6 13 0 63 92 69 125 8 47 9 145 2 145
-5 0 -9 5 -9 11 0 5 4 8 9 4 5 -3 4 7 -4 22 -7 16 -21 45 -30 65 -9 21 -36 58
-59 83 -23 25 -40 48 -37 52 3 3 -2 4 -11 0 -9 -3 -19 0 -22 9 -3 8 -12 14
-21 14 -8 0 -15 3 -15 8 0 8 -49 32 -67 32 -7 0 -13 4 -13 10 0 5 -7 7 -15 4
-8 -4 -15 -1 -15 5 0 6 -7 8 -15 5 -8 -4 -21 -2 -28 4 -6 5 -22 8 -34 7 -13
-1 -23 1 -23 4 0 10 -140 2 -200 -11 -30 -6 -57 -12 -60 -12 -19 -3 -120 -51
-120 -58 0 -4 -9 -8 -19 -8 -11 0 -21 -4 -23 -9 -1 -4 -24 -26 -50 -49 -26
-22 -44 -43 -41 -46 4 -3 1 -6 -6 -6 -7 0 -17 -13 -22 -30 -6 -16 -15 -27 -20
-24 -8 5 -13 -9 -10 -28 0 -5 -4 -8 -10 -8 -5 0 -7 -4 -4 -10 3 -5 1 -10 -6
-10 -7 0 -10 -3 -6 -6 3 -4 0 -19 -8 -34 -8 -15 -11 -30 -8 -34 4 -3 1 -6 -6
-6 -7 0 -10 -4 -6 -9 3 -5 1 -12 -4 -15 -4 -3 -7 -19 -5 -36 2 -16 0 -30 -4
-30 -4 0 -7 -36 -7 -80 0 -44 3 -80 6 -80 3 0 5 -20 5 -44 -1 -24 2 -42 7 -39
4 2 7 -5 7 -17 0 -11 4 -28 8 -38 5 -9 20 -39 33 -67 26 -54 35 -68 62 -93 9
-9 17 -22 17 -29 0 -7 7 -13 15 -13 9 0 12 -6 9 -15 -4 -10 -11 -12 -22 -6
-10 4 -23 6 -29 4 -7 -3 -13 0 -13 7 0 6 -4 8 -10 5 -5 -3 -10 -1 -10 5 0 6
-4 9 -10 5 -5 -3 -26 2 -47 11 -21 9 -47 19 -58 21 -11 2 -21 8 -23 13 -2 6
-13 10 -23 10 -13 0 -17 4 -13 11 4 7 1 10 -7 7 -7 -2 -24 5 -37 16 -13 12
-24 19 -25 16 -3 -8 -62 55 -59 63 1 5 -1 6 -6 3 -5 -3 -22 11 -38 31 -16 20
-35 42 -41 49 -7 7 -13 17 -13 23 0 6 -4 11 -10 11 -5 0 -6 7 -3 17 4 9 2 14
-3 10 -5 -3 -14 6 -21 19 -8 18 -8 22 0 17 7 -3 3 3 -7 15 -11 12 -16 22 -12
22 4 0 2 8 -3 19 -9 15 -1 27 49 72 33 30 60 60 60 67 0 6 4 12 9 12 5 0 13 9
16 20 4 12 11 17 18 14 7 -4 9 -4 5 1 -4 4 -1 20 8 36 8 16 12 29 8 29 -4 0
-1 7 6 15 7 8 10 22 6 30 -3 8 -1 15 4 15 7 0 7 150 0 158 -1 1 -3 5 -4 10 -1
4 -5 13 -9 20 -5 6 -5 12 -1 12 3 0 -1 11 -10 25 -9 14 -14 30 -11 35 3 6 1
10 -4 10 -6 0 -11 5 -11 11 0 41 -184 249 -220 249 -11 0 -45 -26 -76 -57z
m136 -137 c0 -4 8 -15 18 -25 34 -38 41 -49 35 -55 -4 -3 1 -12 10 -19 8 -6
17 -21 19 -32 2 -11 7 -23 12 -26 4 -4 9 -21 10 -38 0 -17 3 -31 6 -31 3 0 5
-19 4 -42 -1 -24 -3 -43 -4 -43 -2 0 -5 -14 -13 -50 -5 -26 -40 -85 -50 -85
-5 0 -6 -3 -4 -7 2 -5 -4 -16 -15 -25 -10 -10 -18 -15 -18 -10 0 4 -4 1 -8 -6
-5 -7 -7 14 -6 48 2 41 -1 60 -9 60 -8 0 -8 3 -2 8 10 6 11 20 5 40 -1 4 -2
10 -1 15 0 4 -4 7 -10 7 -5 0 -7 6 -3 13 4 6 4 9 -1 5 -4 -4 -14 -3 -22 3 -10
9 -13 8 -13 -1 0 -10 -3 -10 -15 0 -12 10 -15 10 -15 -3 0 -8 -6 -17 -12 -19
-9 -3 -13 -27 -14 -70 0 -36 -4 -70 -8 -76 -4 -7 -1 -12 6 -13 10 0 10 -2 0
-6 -15 -6 -48 34 -80 96 -23 46 -43 199 -24 187 5 -3 8 8 7 24 -1 17 2 30 7
30 5 0 6 5 3 10 -3 6 -1 10 6 10 7 0 9 3 6 6 -4 4 3 20 14 35 11 16 18 29 15
29 -6 0 24 38 57 72 9 10 17 23 17 29 0 5 4 8 9 4 5 -3 13 0 17 6 4 8 17 1 35
-19 16 -17 29 -33 29 -36z m-39 -776 c5 0 6 -7 3 -15 -4 -8 1 -17 10 -21 9 -3
13 -10 10 -15 -3 -5 0 -9 5 -9 6 0 11 -5 11 -11 0 -7 12 -22 26 -35 15 -14 22
-29 18 -37 -4 -6 -4 -9 1 -5 4 4 25 -11 45 -32 21 -22 43 -40 48 -40 5 0 13
-7 16 -16 3 -8 10 -13 14 -10 5 3 15 -4 22 -15 8 -10 20 -19 28 -19 7 0 23 -9
34 -20 12 -11 27 -19 33 -17 5 2 21 -4 34 -14 13 -11 32 -19 43 -19 12 0 16
-4 12 -12 -4 -7 -3 -8 5 -4 6 4 17 3 24 -2 7 -5 23 -12 37 -15 14 -3 36 -8 50
-12 14 -3 37 -8 51 -9 14 -2 30 -6 36 -9 13 -8 75 -17 158 -22 33 -2 62 -5 65
-6 3 0 22 -1 43 -1 20 0 37 -5 37 -12 0 -7 3 -7 8 -1 10 14 94 16 85 2 -4 -6
-1 -7 7 -2 7 4 43 10 79 12 121 7 136 9 147 16 6 3 21 5 33 2 11 -2 21 0 21 5
0 5 8 9 18 9 70 3 100 7 96 12 -2 4 5 9 16 12 11 3 20 0 20 -5 0 -7 4 -7 13 0
6 5 26 11 42 13 17 2 36 7 43 12 8 6 12 5 12 -4 0 -9 3 -10 8 -4 4 6 21 10 37
10 17 0 34 2 40 4 5 3 44 6 86 7 56 1 76 -2 73 -11 -3 -6 -10 -12 -17 -13 -42
-3 -57 -7 -57 -14 0 -4 -3 -7 -7 -6 -5 1 -23 -3 -41 -9 -18 -7 -34 -11 -36
-10 -2 1 -13 -6 -23 -16 -11 -9 -23 -14 -26 -10 -4 3 -7 1 -7 -6 0 -8 -6 -11
-16 -7 -8 3 -13 2 -11 -2 6 -9 -13 -26 -33 -30 -8 -2 -20 -10 -26 -18 -6 -7
-15 -14 -21 -14 -5 0 -36 -28 -70 -62 -90 -92 -97 -100 -116 -138 -10 -19 -31
-59 -47 -87 -16 -29 -26 -53 -23 -53 3 0 -2 -9 -12 -20 -14 -15 -15 -20 -4
-21 10 0 11 -2 1 -6 -6 -2 -10 -9 -6 -14 3 -5 0 -9 -7 -9 -7 0 -9 -3 -6 -7 4
-3 1 -13 -6 -21 -10 -13 -9 -14 1 -8 12 7 12 4 2 -14 -12 -23 -21 -65 -23
-112 -1 -16 -4 -28 -7 -28 -3 0 -6 -24 -7 -53 0 -28 -2 -61 -2 -72 -1 -11 0
-33 2 -50 2 -16 -1 -36 -7 -44 -9 -12 -8 -13 3 -6 11 6 13 4 8 -8 -3 -9 -2
-19 3 -22 6 -4 10 -11 10 -16 0 -6 -5 -7 -11 -3 -8 4 -8 0 0 -15 7 -11 9 -21
6 -21 -4 0 -3 -5 1 -12 7 -12 14 -46 16 -78 0 -8 4 -19 8 -25 11 -14 10 -68
-2 -82 -7 -9 -7 -13 1 -13 8 0 8 -6 2 -17 -21 -39 -30 -83 -18 -83 9 0 9 -2 1
-8 -6 -4 -11 -22 -10 -40 1 -17 -2 -32 -6 -32 -4 0 -5 -12 -2 -27 3 -15 0 -30
-8 -34 -10 -7 -10 -9 1 -9 11 0 11 -3 1 -15 -7 -8 -9 -15 -4 -15 5 0 10 -20
11 -45 0 -28 -3 -45 -10 -45 -7 0 -6 -4 2 -9 8 -5 11 -16 8 -25 -3 -8 -2 -18
4 -22 7 -4 6 -10 0 -18 -6 -7 -7 -16 -3 -20 4 -4 8 -12 8 -17 1 -5 3 -11 4
-14 1 -3 3 -8 4 -12 17 -81 31 -133 36 -133 4 0 7 -7 7 -15 0 -20 64 -145 74
-145 5 0 9 -5 9 -11 0 -5 -6 -7 -12 -4 -7 4 1 -6 17 -22 31 -29 35 -35 35 -53
0 -5 6 -10 14 -10 14 0 31 -28 27 -45 -2 -5 0 -7 4 -3 4 4 13 2 20 -5 48 -47
84 -75 89 -70 3 4 6 -1 6 -11 0 -9 4 -15 8 -12 5 3 18 -3 28 -12 10 -10 22
-19 27 -20 4 -1 31 -14 60 -29 28 -15 58 -26 65 -25 6 2 12 -2 12 -8 0 -6 5
-8 10 -5 6 3 10 2 10 -2 0 -5 12 -10 27 -11 15 -1 29 -5 32 -10 6 -6 28 -10
88 -13 31 -2 36 -24 6 -27 -16 -1 -22 2 -17 10 5 7 3 8 -7 2 -28 -18 -169 -19
-196 -1 -6 4 -14 3 -18 -3 -4 -6 -13 -7 -23 -2 -9 4 -30 8 -47 8 -16 -1 -32 2
-36 6 -3 4 -28 9 -57 10 -29 1 -52 5 -52 8 0 3 -11 7 -26 8 -14 1 -34 7 -46
13 -16 9 -19 8 -13 -2 5 -8 4 -10 -3 -5 -17 10 -52 18 -94 19 -21 1 -38 5 -38
9 0 4 -15 7 -32 7 -18 0 -85 2 -148 4 -63 2 -125 0 -137 -5 -16 -5 -23 -4 -24
5 0 9 -2 9 -6 -1 -4 -10 -8 -10 -19 -1 -9 7 -14 8 -14 1 0 -6 -17 -9 -40 -8
-23 2 -43 -1 -46 -5 -2 -4 -16 -6 -29 -3 -14 2 -25 1 -25 -4 0 -5 -10 -8 -22
-7 -13 1 -44 -4 -70 -11 -26 -6 -49 -9 -52 -7 -3 3 -12 1 -19 -5 -8 -7 -17 -9
-20 -5 -4 3 -7 1 -7 -6 0 -7 -4 -10 -9 -7 -5 3 -22 -1 -37 -9 -16 -8 -37 -15
-46 -15 -10 0 -18 -5 -18 -11 0 -5 -4 -8 -9 -4 -5 3 -12 1 -16 -5 -4 -6 -11
-8 -16 -5 -5 4 -9 3 -9 -2 0 -4 -23 -19 -50 -32 -27 -14 -64 -37 -80 -53 -17
-15 -34 -28 -38 -28 -4 0 -25 -21 -47 -46 -22 -25 -47 -52 -55 -61 -8 -9 -15
-19 -15 -22 -1 -3 -14 -26 -30 -51 -19 -30 -30 -40 -33 -30 -3 8 -8 17 -11 20
-3 3 -15 22 -26 43 -11 20 -24 37 -29 37 -5 0 -7 3 -3 6 6 7 -18 37 -85 104
-26 26 -50 45 -53 42 -3 -3 -5 0 -5 6 0 7 -6 12 -14 12 -8 0 -21 8 -28 19 -7
10 -16 19 -20 20 -13 2 -83 36 -88 42 -10 11 -88 38 -94 32 -3 -4 -6 -1 -6 5
0 7 -11 12 -24 12 -14 0 -28 5 -31 11 -4 6 -13 8 -20 5 -7 -2 -16 -2 -19 2 -4
3 -14 7 -24 9 -43 8 -98 16 -109 16 -7 0 -13 5 -13 11 0 6 -5 4 -10 -4 -5 -8
-10 -10 -10 -4 0 6 -21 12 -47 13 -27 1 -68 3 -93 5 -25 1 -51 6 -59 10 -10 6
-12 5 -7 -2 8 -14 0 -14 -29 -3 -11 5 -28 4 -37 -1 -11 -5 -18 -5 -18 1 0 6
-11 6 -29 1 -19 -5 -33 -4 -40 3 -8 8 -11 7 -11 -4 0 -12 -2 -12 -10 1 -8 12
-10 12 -10 1 0 -10 -3 -11 -13 -2 -8 6 -17 7 -21 3 -4 -4 -20 -8 -34 -8 -15
-1 -27 -3 -27 -4 0 -1 -13 -3 -30 -5 -26 -2 -88 -12 -120 -20 -38 -8 -93 -19
-110 -21 -11 -1 -20 -3 -20 -4 0 -2 -36 -9 -84 -15 -24 -3 -47 -8 -52 -11 -5
-3 -9 1 -9 8 0 10 -2 10 -9 -1 -6 -9 -21 -12 -45 -9 -20 2 -36 0 -36 -4 0 -5
-9 -4 -20 2 -11 6 -20 7 -20 2 0 -4 -9 -8 -20 -8 -11 0 -20 3 -20 7 0 10 57
29 64 22 3 -4 6 -1 6 4 0 6 8 10 17 9 10 -2 24 3 31 11 8 7 17 11 22 8 5 -3
11 -1 15 5 4 6 11 8 16 5 5 -4 9 -1 9 4 0 6 7 11 15 11 8 0 15 4 15 10 0 5 7
6 17 3 11 -4 14 -3 9 5 -4 7 -1 12 8 12 9 0 16 5 16 12 0 6 3 9 6 5 7 -7 114
71 114 84 0 4 9 11 20 14 11 3 20 10 20 14 0 5 18 28 39 52 22 23 38 46 35 51
-3 4 2 11 10 14 9 3 16 12 16 20 0 8 5 14 12 14 6 0 8 3 5 7 -4 3 -1 13 7 22
8 9 15 19 16 23 0 4 8 25 17 45 9 21 17 40 18 43 4 28 30 108 38 118 6 8 5 12
-4 12 -9 0 -10 3 -4 8 12 8 15 21 20 76 2 23 4 41 5 41 1 0 3 44 4 98 1 53 -2
97 -7 97 -5 0 -4 7 3 15 7 8 8 15 3 15 -5 0 -9 10 -10 23 -1 34 -10 90 -16
107 -4 8 -8 29 -11 45 -2 17 -5 31 -6 33 -7 7 -5 29 3 39 5 7 6 17 2 23 -3 5
-2 10 3 10 5 0 8 12 8 28 -1 15 2 32 7 39 4 6 8 30 9 52 0 23 3 41 7 41 8 0 7
192 -1 205 -4 6 -3 17 2 25 5 8 5 21 -1 32 -5 9 -9 21 -8 25 1 4 0 10 -1 13
-1 3 -3 16 -4 30 -1 14 -5 31 -10 38 -4 7 -5 20 -2 28 4 10 2 13 -6 8 -8 -5
-9 -2 -5 9 3 9 2 19 -4 22 -5 4 -7 10 -4 15 3 5 1 11 -5 15 -6 4 -8 11 -5 16
4 5 1 9 -4 9 -6 0 -11 7 -11 16 0 17 -77 171 -88 176 -16 7 -61 76 -54 83 4 5
1 5 -6 1 -7 -4 -15 -1 -18 8 -3 9 -13 16 -21 16 -8 0 -12 4 -9 8 3 5 -6 15
-19 22 -14 7 -25 17 -25 22 0 4 -7 8 -15 8 -8 0 -15 4 -15 10 0 5 -17 19 -38
30 -20 12 -61 34 -89 50 -29 16 -53 26 -53 23 0 -3 -6 0 -13 6 -8 6 -17 8 -21
4 -4 -4 -10 -2 -14 4 -7 10 -34 18 -109 30 -21 3 -30 9 -26 17 4 6 -1 5 -10
-3 -14 -11 -17 -11 -17 0 0 11 -2 11 -10 -1 -6 -9 -10 -11 -10 -3 0 7 -7 10
-17 6 -10 -3 -15 -3 -12 1 15 16 147 28 155 14 3 -5 10 -5 17 -1 17 11 57 10
57 -2 0 -6 3 -7 8 0 9 13 32 18 32 7 0 -4 15 -9 33 -9 30 -1 53 -5 147 -20 19
-3 43 -6 53 -6 9 -1 17 -5 17 -10 0 -5 7 -7 15 -3 8 3 15 2 15 -3 0 -5 11 -7
25 -6 14 2 25 0 25 -5 0 -5 8 -7 17 -6 10 2 33 -1 53 -6 19 -5 102 -11 184
-14 83 -2 152 -6 154 -9 3 -2 10 -1 16 2 6 4 38 9 71 10 97 5 110 7 118 18 4
6 11 4 17 -5 6 -9 10 -10 10 -3 0 6 9 10 20 8 11 -2 22 0 24 4 3 4 18 9 33 9
36 2 55 6 68 14 13 7 78 22 88 20 4 -1 7 3 7 9 0 5 5 7 12 3 6 -4 17 1 25 11
7 11 13 16 13 12 0 -8 73 23 81 35 3 5 15 10 27 11 12 0 19 3 17 6 -3 2 15 16
38 31 52 34 123 100 120 111 -2 5 1 8 6 7 5 -2 10 2 12 7 3 10 30 43 56 70 7
7 9 15 6 19 -4 3 -1 6 5 6 7 0 11 3 10 8 0 4 3 16 7 26 8 19 9 19 18 -2 6 -12
14 -22 18 -22z m-1695 -1502 c-8 13 19 13 41 -1 6 -4 14 -3 18 3 4 6 10 8 14
6 4 -3 24 -6 44 -8 21 -1 37 -5 37 -9 0 -3 12 -6 27 -6 15 0 29 -6 31 -12 2
-6 12 -11 23 -11 10 0 19 -5 19 -11 0 -5 4 -8 9 -5 5 3 14 -1 21 -9 7 -8 19
-15 26 -15 27 0 13 -17 -28 -36 -24 -10 -46 -23 -50 -29 -4 -5 -8 -6 -8 -1 0
5 -7 3 -15 -4 -12 -10 -15 -10 -15 1 0 11 -2 12 -9 1 -4 -7 -23 -15 -42 -17
-19 -2 -34 -4 -34 -5 0 -1 -21 -3 -47 -4 -27 -1 -48 2 -48 6 0 5 -9 4 -20 -2
-11 -6 -20 -7 -20 -2 0 5 -6 9 -12 9 -46 3 -68 9 -68 17 0 5 -3 7 -6 3 -4 -3
-19 0 -34 8 -15 8 -30 11 -34 8 -3 -4 -6 -1 -6 5 0 7 -9 12 -20 12 -10 0 -24
9 -29 19 -9 16 -7 20 14 25 14 4 25 11 25 16 0 5 7 7 15 4 8 -4 15 -1 15 7 0
7 3 9 7 6 3 -4 11 -3 17 3 12 9 65 22 99 24 9 0 17 4 17 9 0 5 8 3 17 -4 11
-10 14 -10 9 -1z m3238 -10 c-5 -8 -3 -8 7 -2 20 13 132 12 141 0 5 -7 8 -6 8
2 0 8 5 10 13 5 6 -4 21 -9 31 -10 11 -2 26 -9 35 -16 12 -9 13 -9 7 1 -6 10
-2 10 21 0 15 -7 31 -16 34 -21 3 -5 9 -8 13 -7 15 4 67 -23 63 -33 -4 -14
-60 -46 -69 -40 -5 2 -8 -1 -8 -8 0 -7 -3 -10 -6 -7 -3 4 -17 0 -31 -7 -14 -7
-32 -11 -39 -8 -8 3 -14 1 -14 -4 0 -5 -16 -9 -35 -8 -19 0 -35 -2 -35 -5 0
-3 -15 -4 -32 -3 -88 5 -118 9 -118 15 0 4 -9 5 -19 3 -11 -2 -22 3 -25 11 -3
8 -11 14 -18 14 -9 0 -9 -3 2 -11 13 -9 13 -10 0 -5 -8 3 -23 9 -32 12 -10 4
-18 10 -18 15 0 5 -7 9 -16 9 -8 0 -22 6 -30 14 -16 17 -19 40 -4 31 6 -3 13
0 16 8 2 7 10 14 17 14 14 1 106 32 127 44 21 11 22 11 14 -3z m-1615 -2011
c1 -104 14 -133 58 -132 44 0 52 20 55 128 1 44 5 66 12 64 6 -3 10 -10 9 -16
-2 -6 4 -11 12 -11 8 0 15 -7 15 -15 0 -8 5 -15 11 -15 5 0 7 -4 4 -10 -3 -5
-1 -10 4 -10 6 0 11 -7 11 -15 0 -8 5 -15 11 -15 5 0 7 -4 4 -10 -3 -5 -3 -16
1 -22 5 -7 9 -19 10 -28 1 -8 5 -27 8 -42 4 -18 2 -28 -5 -28 -8 0 -9 -4 0
-13 6 -8 8 -16 5 -19 -2 -3 -7 -18 -10 -33 -5 -29 -42 -111 -59 -133 -5 -7
-18 -22 -27 -33 -10 -10 -16 -19 -13 -19 3 0 -7 -13 -22 -30 -14 -16 -33 -30
-42 -30 -14 0 -34 21 -40 42 -1 4 -14 20 -29 36 -15 16 -34 42 -42 58 -8 16
-19 32 -25 36 -5 4 -6 8 -1 8 5 0 3 7 -4 15 -7 8 -9 15 -5 15 4 0 3 6 -3 13
-6 7 -12 30 -14 50 -1 20 -6 37 -10 37 -4 0 -4 10 0 23 5 12 8 34 7 50 0 15 2
27 6 27 4 0 10 13 14 30 4 16 14 34 23 40 9 5 13 10 9 10 -5 0 -2 6 5 14 7 7
19 23 27 34 22 31 29 19 30 -51z"/>
<path d="M944 4673 c-13 -13 -16 -21 -13 -39 0 -4 -5 -11 -13 -15 -11 -7 -11
-9 1 -9 9 0 10 -4 4 -12 -7 -11 -10 -101 -3 -118 1 -3 3 -16 6 -29 2 -14 8
-29 12 -35 7 -10 8 -21 3 -41 0 -3 -11 -1 -22 6 -15 8 -19 8 -15 0 9 -14 4
-14 -29 -1 -17 7 -24 7 -20 0 4 -6 -9 -11 -32 -11 -47 -2 -96 -6 -103 -9 -3
-1 -8 -2 -12 -1 -5 0 -8 -3 -8 -7 0 -4 -12 -9 -27 -10 -15 -1 -29 -5 -32 -10
-3 -4 -10 -7 -16 -8 -26 -2 -72 -26 -83 -44 -9 -15 -9 -25 0 -45 10 -22 17
-26 47 -23 20 2 38 5 41 8 15 15 52 30 60 25 6 -4 10 -2 10 2 0 8 23 13 68 16
6 0 12 3 12 6 0 3 17 6 37 5 21 0 43 2 48 5 15 8 65 8 65 0 0 -4 14 -4 30 1
17 5 30 5 30 1 0 -12 76 -6 93 8 24 19 22 32 -18 105 -28 50 -37 78 -40 130
-2 37 0 77 5 90 20 52 -46 98 -86 59z"/>
<path d="M4410 4653 c-16 -19 -23 -63 -10 -63 10 0 7 -121 -3 -137 -5 -7 -5
-17 -2 -23 3 -5 1 -10 -5 -10 -6 0 -8 -4 -5 -10 3 -5 1 -10 -6 -10 -7 0 -10
-3 -6 -6 3 -4 -5 -21 -18 -39 -14 -17 -25 -42 -25 -54 0 -42 18 -48 150 -49
149 -2 180 -4 180 -12 0 -4 6 -7 13 -8 28 -3 62 -10 62 -11 0 -2 11 -5 25 -7
13 -2 27 -8 30 -12 3 -4 12 -9 20 -10 41 -10 50 -10 50 -1 0 5 5 8 11 7 7 -2
15 9 19 24 7 23 3 32 -22 53 -16 14 -34 23 -38 20 -5 -3 -11 -1 -15 5 -4 6
-11 8 -16 5 -5 -4 -9 -1 -9 5 0 6 -4 8 -10 5 -5 -3 -10 -1 -10 6 0 7 -2 10 -5
7 -3 -3 -31 1 -62 8 -31 7 -60 11 -65 8 -4 -3 -8 1 -8 8 0 9 -3 9 -10 -2 -5
-8 -10 -10 -10 -4 0 5 -24 10 -55 11 -74 1 -75 1 -75 14 0 5 4 8 8 5 5 -3 8
10 7 29 0 19 3 31 9 28 5 -4 7 1 3 10 -3 10 -3 17 1 17 5 0 7 30 5 68 -3 68
-18 121 -37 134 -19 13 -51 9 -66 -9z"/>
<path d="M40 3029 c0 -6 -4 -8 -9 -5 -18 11 -32 -23 -28 -67 6 -72 59 -150
137 -202 25 -16 48 -34 51 -38 3 -5 10 -8 15 -7 25 5 8 -19 -36 -50 -27 -19
-50 -37 -50 -40 0 -3 -13 -20 -29 -39 -17 -19 -28 -38 -25 -43 3 -4 0 -8 -6
-8 -6 0 -16 -13 -21 -30 -6 -16 -15 -30 -20 -30 -4 0 -6 -7 -3 -15 4 -8 1 -15
-4 -15 -13 0 -6 -44 8 -48 6 -2 8 -8 4 -13 -3 -5 3 -9 13 -10 10 0 26 -2 36
-4 9 -2 15 1 11 6 -3 5 1 9 8 9 7 0 21 23 31 50 10 28 22 50 28 50 6 0 8 4 5
9 -7 11 79 98 105 106 10 4 17 11 14 16 -4 5 1 9 9 9 8 0 27 5 43 12 15 7 33
13 38 14 37 7 54 19 59 40 7 27 -13 66 -30 60 -6 -2 -16 0 -21 5 -5 5 -21 12
-36 14 -39 8 -150 71 -157 90 -3 9 -10 15 -15 14 -6 -1 -17 11 -25 27 -8 16
-17 31 -20 34 -7 7 -12 31 -12 58 0 12 -5 22 -10 22 -5 0 -6 6 -2 13 4 6 4 9
0 5 -5 -4 -19 -3 -32 2 -16 6 -24 6 -24 -1z"/>
<path d="M5357 3022 c-14 -9 -28 -27 -31 -41 -3 -14 -16 -38 -30 -53 -15 -15
-26 -31 -26 -36 0 -5 -16 -20 -35 -33 -19 -13 -35 -28 -35 -32 0 -5 -5 -5 -10
-2 -6 3 -13 -1 -16 -9 -3 -9 -10 -14 -14 -11 -5 3 -11 1 -15 -5 -3 -5 -15 -10
-26 -10 -10 0 -19 -5 -19 -11 0 -5 -4 -8 -9 -5 -24 15 -94 -27 -96 -59 -2 -16
34 -46 55 -48 11 -1 20 -5 20 -9 0 -4 6 -8 14 -8 7 0 26 -7 42 -14 15 -8 31
-13 36 -10 4 3 8 -3 8 -12 0 -10 3 -14 6 -11 8 8 61 -27 97 -66 32 -34 49 -70
52 -109 1 -14 8 -33 16 -40 19 -19 49 -30 49 -18 0 6 7 10 15 10 8 0 20 10 26
23 7 12 12 22 12 22 0 0 -5 10 -12 23 -9 17 -9 22 1 22 10 0 10 2 0 9 -8 4
-13 10 -12 12 6 17 -68 132 -80 124 -4 -2 -13 6 -20 20 -7 13 -23 26 -37 30
-13 3 -21 10 -18 16 4 5 3 9 -2 8 -4 -1 -18 2 -30 6 -23 7 -21 35 3 35 7 0 18
8 23 18 6 9 11 13 11 7 0 -16 130 125 130 141 0 8 4 14 8 14 4 0 14 15 20 34
13 36 7 90 -9 80 -5 -3 -9 -1 -9 4 0 13 -26 10 -53 -6z"/>
<path d="M556 1251 c-20 -8 -31 -48 -18 -66 12 -17 56 -51 48 -38 -5 9 -2 11
8 7 9 -3 16 -10 16 -15 0 -5 3 -8 8 -8 22 4 53 -2 48 -9 -2 -4 5 -8 17 -9 12
-1 33 -4 47 -7 34 -9 126 -19 177 -19 27 -1 40 -5 35 -11 -3 -6 -8 -17 -9 -23
-2 -7 -4 -19 -6 -25 -1 -7 -5 -17 -9 -23 -3 -5 -5 -34 -4 -63 0 -28 -3 -52 -8
-52 -5 0 -4 -6 2 -12 6 -7 10 -16 10 -21 0 -4 3 -21 7 -38 8 -34 48 -57 70
-39 6 5 14 8 16 6 2 -3 9 6 16 20 6 13 8 24 4 24 -12 0 -17 115 -7 155 2 11 5
25 5 32 1 6 8 19 17 27 8 9 13 16 10 16 -4 0 5 17 19 38 21 32 24 44 16 65 -6
15 -16 27 -23 28 -87 4 -118 3 -118 -5 0 -5 -8 -2 -17 5 -11 10 -14 10 -9 2 9
-16 -6 -17 -22 -1 -9 9 -12 9 -12 0 0 -8 -8 -9 -22 -4 -13 4 -35 7 -50 6 -16
0 -28 2 -28 6 0 4 -10 6 -22 6 -13 -1 -32 2 -43 8 -11 6 -23 9 -27 8 -4 -1
-30 7 -58 18 -56 22 -56 22 -84 11z"/>
<path d="M4813 1233 c-13 -2 -23 -9 -23 -14 0 -5 -9 -9 -19 -9 -11 0 -22 -4
-25 -8 -3 -5 -19 -8 -35 -7 -17 1 -28 -2 -25 -7 3 -4 2 -8 -3 -9 -4 0 -24 -3
-43 -5 -89 -10 -220 -10 -220 0 0 6 -5 4 -10 -4 -9 -13 -11 -13 -20 0 -9 13
-10 13 -10 0 0 -12 -2 -12 -9 -2 -6 11 -13 7 -30 -14 -24 -30 -27 -49 -8 -61
19 -12 59 -97 62 -135 2 -18 4 -33 5 -33 5 0 5 -67 0 -70 -3 -2 -7 -19 -8 -39
-2 -28 2 -38 20 -48 30 -16 48 -19 48 -7 0 6 5 7 10 4 12 -8 33 43 26 62 -3 8
-1 11 4 8 6 -4 8 24 6 72 -4 79 -12 119 -28 139 -12 16 8 22 69 20 28 0 49 2
47 6 -3 4 4 7 13 7 67 2 93 5 93 12 0 4 9 6 20 4 11 -2 22 1 25 6 4 5 11 7 16
4 5 -4 9 -1 9 4 0 6 3 10 8 10 20 -4 71 15 65 24 -4 6 -1 7 6 3 7 -5 18 0 26
10 35 47 1 89 -62 77z"/>
</g>
</svg>
